<svg width="12" height="12" viewBox="0 0 12 12" fill="none" xmlns="http://www.w3.org/2000/svg">
<path d="M8.586 5L6.293 2.707C6.11084 2.5184 6.01005 2.2658 6.01233 2.0036C6.0146 1.7414 6.11977 1.49059 6.30518 1.30518C6.49059 1.11977 6.7414 1.01461 7.0036 1.01233C7.2658 1.01005 7.5184 1.11084 7.707 1.293L11.707 5.293C11.8945 5.48053 11.9998 5.73484 11.9998 6C11.9998 6.26517 11.8945 6.51947 11.707 6.707L7.707 10.707C7.61475 10.8025 7.50441 10.8787 7.3824 10.9311C7.2604 10.9835 7.12918 11.0111 6.9964 11.0123C6.86362 11.0134 6.73194 10.9881 6.60905 10.9378C6.48615 10.8875 6.3745 10.8133 6.2806 10.7194C6.18671 10.6255 6.11246 10.5139 6.06218 10.391C6.0119 10.2681 5.9866 10.1364 5.98775 10.0036C5.9889 9.87082 6.01649 9.7396 6.0689 9.6176C6.12131 9.49559 6.19749 9.38525 6.293 9.293L8.586 7H1C0.734784 7 0.48043 6.89464 0.292893 6.70711C0.105357 6.51957 0 6.26522 0 6C0 5.73478 0.105357 5.48043 0.292893 5.29289C0.48043 5.10536 0.734784 5 1 5H8.586Z" fill="#5C9FFF"/>
</svg>
