<svg width="127" height="34" viewBox="0 0 127 34" fill="none" xmlns="http://www.w3.org/2000/svg">
<g clip-path="url(#clip0)">
<path fill-rule="evenodd" clip-rule="evenodd" d="M38.9183 9.37994V24.294H36.8254V9.37994H38.9183ZM42.969 17.7398V24.294H40.9262V13.1072H42.8785V15.0092H42.9793C43.3749 13.7634 44.266 12.9626 45.5631 12.9626C47.3518 12.9626 48.536 14.4914 48.5304 17.1717V24.294H46.4884V17.5798C46.4884 16.0869 45.857 15.1907 44.8014 15.1907C43.7244 15.1907 42.9682 16.1238 42.9682 17.7398H42.969ZM54.883 13.1082V15.1477H53.0832V24.294H51.0411V15.1477H49.76V13.1072H51.0403V12.0521C51.0403 9.79419 52.242 8.68063 53.748 8.68063C54.4533 8.68063 55.0347 8.8693 55.2992 8.98619L54.8869 11.0257C54.6408 10.9239 54.3844 10.8697 54.126 10.8647C53.3635 10.8647 53.0824 11.3528 53.0824 12.2274V13.1082H54.8814H54.883ZM59.8408 24.5124C57.2237 24.5124 55.6272 22.2771 55.6272 18.7662C55.6272 15.3148 57.2459 12.9626 59.728 12.9626C61.8606 12.9626 63.6882 14.6883 63.6882 18.6134V19.4224H57.6518C57.6692 21.3368 58.5437 22.4586 59.8638 22.4586C60.7494 22.4586 61.4205 21.9633 61.697 21.0169L63.6095 21.2937C63.2481 23.2378 61.8542 24.5134 59.8408 24.5134V24.5124ZM57.6581 17.6455H61.7311C61.7255 16.1228 60.9353 15.0164 59.7566 15.0164C58.5382 15.0164 57.7256 16.2181 57.6581 17.6455ZM65.2561 24.294V13.1072H67.2361V14.9733H67.3259C67.642 13.6762 68.4657 12.9482 69.4641 12.9482C69.9327 12.9482 70.3219 13.1082 70.6261 13.3553L69.9946 15.5404C69.7426 15.3853 69.4668 15.3057 69.1877 15.3076C68.1218 15.3076 67.2973 16.3053 67.2973 17.7172V24.294H65.2561V24.294ZM71.653 24.294V13.1072H73.6046V15.0092H73.7062C74.0676 13.7347 74.9357 12.9626 76.0985 12.9626C77.2661 12.9626 78.1064 13.7419 78.4392 15.0092H78.5298C78.9134 13.7634 79.8721 12.9626 81.1302 12.9626C82.7211 12.9626 83.8379 14.2874 83.8379 16.7862V24.294H81.7902V17.1933C81.7902 15.809 81.1358 15.1835 80.3121 15.1835C79.3248 15.1835 78.7434 16.0572 78.7434 17.3173V24.294H76.7419V17.0846C76.7419 15.9341 76.1486 15.1835 75.286 15.1835C74.406 15.1835 73.6951 16.1166 73.6951 17.4917V24.294H71.653V24.294ZM89.5971 24.5124C86.98 24.5124 85.3835 22.2771 85.3835 18.7662C85.3835 15.3148 87.0022 12.9626 89.4843 12.9626C91.6169 12.9626 93.4445 14.6883 93.4445 18.6134V19.4224H87.4081C87.4255 21.3368 88.3 22.4586 89.6201 22.4586C90.5057 22.4586 91.1768 21.9633 91.4533 21.0169L93.3658 21.2937C93.0045 23.2378 91.6105 24.5134 89.5971 24.5134V24.5124ZM87.4144 17.6455H91.4874C91.4818 16.1228 90.6915 15.0164 89.5129 15.0164C88.2945 15.0164 87.4819 16.2181 87.4144 17.6455ZM102.838 24.294H100.83V22.5314H100.711C100.39 23.3476 99.7184 24.4898 98.2291 24.4898C96.1879 24.4898 94.6581 22.4001 94.6581 18.716C94.6581 14.9867 96.2323 12.9626 98.2347 12.9626C99.7636 12.9626 100.401 14.15 100.711 14.958H100.796V9.37994H102.837V24.294H102.838ZM100.835 18.7006C100.835 16.5309 100.113 15.1251 98.7986 15.1251C97.4396 15.1251 96.7399 16.618 96.7399 18.7006C96.7399 20.7985 97.4507 22.3273 98.7986 22.3273C100.102 22.3273 100.835 20.8713 100.835 18.7006V18.7006ZM104.763 24.294V13.1072H106.804V24.294H104.763ZM105.789 11.6081C105.152 11.6081 104.605 10.9826 104.605 10.1808C104.605 9.37173 105.152 8.74523 105.789 8.74523C106.421 8.74523 106.968 9.37173 106.968 10.1808C106.968 10.9816 106.42 11.6081 105.789 11.6081ZM112.524 24.5124C109.935 24.5124 108.373 22.1315 108.373 18.7447C108.373 15.3302 109.975 12.9616 112.513 12.9616C114.629 12.9616 116.095 14.557 116.242 16.982H114.284C114.133 15.9054 113.523 15.0892 112.542 15.0892C111.284 15.0892 110.443 16.4427 110.443 18.7006C110.443 20.9872 111.267 22.3642 112.542 22.3642C113.439 22.3642 114.11 21.6721 114.284 20.4704H116.242C116.09 22.8451 114.702 24.5124 112.525 24.5124H112.524ZM120.242 24.5196C118.589 24.5196 117.343 23.3547 117.343 21.1553C117.343 18.636 118.95 17.9869 120.631 17.7542L120.783 17.7326C122.199 17.5357 122.781 17.4558 122.775 16.7206C122.769 15.6132 122.267 14.9795 121.308 14.9795C120.31 14.9795 119.734 15.6357 119.531 16.3996L117.625 16.051C118.075 14.0105 119.464 12.9626 121.325 12.9626C122.939 12.9626 124.817 13.8506 124.817 16.8077V24.294H122.854V22.7569H122.786C122.414 23.6972 121.601 24.5206 120.242 24.5206V24.5196ZM120.772 22.5826C122.002 22.5826 122.781 21.5265 122.781 20.2817V18.962C122.515 19.2389 121.443 19.4132 120.908 19.5086C119.994 19.6757 119.311 20.0982 119.311 21.1102C119.311 22.0792 119.92 22.5816 120.773 22.5816L120.772 22.5826Z" fill="#112950"/>
<path d="M23.7717 0.710419H3.1208C1.80482 0.710419 0.738007 2.08764 0.738007 3.78654V30.4462C0.738007 32.1451 1.80482 33.5223 3.1208 33.5223H23.7717C25.0876 33.5223 26.1544 32.1451 26.1544 30.4462V3.78654C26.1544 2.08764 25.0876 0.710419 23.7717 0.710419Z" fill="#2E85FF"/>
<path fill-rule="evenodd" clip-rule="evenodd" d="M11.8577 15.0656V9.93877H15.0348V15.0656H19.0061V19.1671H15.0348V24.294H11.8577V19.1671H7.88638V15.0656H11.8577Z" fill="white"/>
</g>
<defs>
<clipPath id="clip0">
<rect width="125.494" height="32.8119" fill="white" transform="translate(0.738007 0.710419)"/>
</clipPath>
</defs>
</svg>
