<svg width="36" height="48" viewBox="0 0 36 48" fill="none" xmlns="http://www.w3.org/2000/svg">
<g clip-path="url(#clip0)">
<path d="M33.387 16.4842C34.398 16.7542 35.275 17.5692 35.545 18.5862C36.152 21.0962 36.152 27.9462 35.545 30.3892C35.275 31.4062 34.398 32.2202 33.387 32.4912C30.892 33.1702 17.067 33.1702 14.639 32.4912C13.627 32.2202 12.751 31.4062 12.481 30.3892C11.806 27.7432 11.874 21.1642 12.481 18.5862C12.751 17.5692 13.627 16.7552 14.639 16.4842C17.269 15.8052 31.094 15.8742 33.387 16.4842ZM21.722 20.6032V28.3732L27.741 24.4872L21.722 20.6032Z" fill="#92A0B6"/>
</g>
<defs>
<clipPath id="clip0">
<rect width="36" height="48" fill="white"/>
</clipPath>
</defs>
</svg>
