<svg width="48" height="48" viewBox="0 0 48 48" fill="none" xmlns="http://www.w3.org/2000/svg">
<path d="M36 26.101V35H30.856V26.697C30.856 24.611 30.112 23.188 28.25 23.188C26.829 23.188 25.983 24.148 25.61 25.076C25.475 25.407 25.44 25.869 25.44 26.333V35H20.294C20.294 35 20.364 20.938 20.294 19.48H25.439V21.68C25.429 21.697 25.415 21.715 25.406 21.73H25.439V21.68C26.123 20.625 27.344 19.116 30.077 19.116C33.462 19.116 36 21.335 36 26.101ZM14.912 12C13.152 12 12 13.158 12 14.68C12 16.17 13.118 17.364 14.843 17.364H14.878C16.672 17.364 17.788 16.171 17.788 14.681C17.754 13.158 16.672 12 14.912 12ZM12.306 35H17.449V19.48H12.306V35Z" fill="#92A0B6"/>
</svg>
