<svg width="48" height="48" viewBox="0 0 48 48" fill="none" xmlns="http://www.w3.org/2000/svg">
<path d="M36 16.318C35.163 16.743 34.186 17.027 33.21 17.168C34.256 16.531 35.023 15.538 35.442 14.333C34.465 14.9 33.419 15.326 32.302 15.538C31.5497 14.7498 30.559 14.2309 29.4827 14.0614C28.4063 13.8919 27.3041 14.0812 26.346 14.6C24.376 15.666 23.335 17.925 23.791 20.145C19.884 19.933 16.116 18.09 13.674 14.9C13.0024 15.9929 12.7876 17.3061 13.076 18.556C13.3601 19.8016 14.1274 20.8832 15.209 21.563C14.442 21.563 13.674 21.421 12.977 21.067C13.047 23.406 14.651 25.461 16.884 25.957C16.186 26.17 15.419 26.17 14.651 26.028C15.349 28.084 17.233 29.501 19.326 29.572C17.302 31.273 14.581 32.053 12 31.628C14.1482 33.0893 16.6677 33.9095 19.2645 33.9931C21.8612 34.0767 24.4282 33.4201 26.666 32.1C31.243 29.406 33.916 24.303 33.558 18.94C34.535 18.232 35.372 17.381 36 16.318Z" fill="#92A0B6"/>
</svg>
